<svg version="1.1" xmlns="http://www.w3.org/2000/svg" xmlns:xlink="http://www.w3.org/1999/xlink" width="64px" height="64px" viewBox="0,0,256,256"><g fill="#7ed957" fill-rule="nonzero" stroke="none" stroke-width="1" stroke-linecap="butt" stroke-linejoin="miter" stroke-miterlimit="10" stroke-dasharray="" stroke-dashoffset="0" font-family="none" font-weight="none" font-size="none" text-anchor="none" style="mix-blend-mode: normal"><g transform="translate(-0.0002,-1.9998) scale(4,4)"><g id="a" font-family="Inter, apple-system, BlinkMacSystemFont, &quot;Helvetica Neue&quot;, &quot;Segoe UI&quot;, &quot;Fira Sans&quot;, Roboto, Oxygen, Ubuntu, &quot;Droid Sans&quot;, Arial, sans-serif" font-weight="400" font-size="16" text-anchor="start"></g><g id="b"><path d="M30,25h13v6h-13zM35,16h-13v6h13zM46,31h11v-6h-11zM50,16h-12v6h12zM7,22h12v-6h-12zM50,33v6.0628c1.4619,-0.1206 3.2077,-0.1325 5.3594,0.5402c2.0195,0.6279 3.4297,1.981 3.4893,2.0381c0.0967,0.0942 0.1514,0.2236 0.1514,0.3589v8.5c0,0.2761 -0.2239,0.5 -0.5,0.5h-53.0001c-0.2761,0 -0.5,-0.2239 -0.5,-0.5v-16c0,-0.0947 0.0273,-0.1875 0.0781,-0.2676c0.124,-0.1958 0.8848,-1.1587 4.3828,-1.0923c1.1008,0.0285 1.8939,-0.1211 2.5391,-0.3632v-8.777h-5.5c-0.8284,0 -1.5,-0.6716 -1.5,-1.5v-7c0,-0.8284 0.6716,-1.5 1.5,-1.5h43.5c1.1046,0 2,0.8954 2,2v7h5.5c0.8284,0 1.5,0.6716 1.5,1.5v7c0,0.8284 -0.6716,1.5 -1.5,1.5h-7.5zM37,22c0,0.5522 0.4477,1 1,1h12c0.5523,0 1,-0.4478 1,-1v-6c0,-0.5523 -0.4477,-1 -1,-1h-12c-0.5523,0 -1,0.4477 -1,1zM48,34v5.2517c0.3143,-0.0245 0.6354,-0.055 0.9746,-0.0911l0.0254,-0.0026v-5.158c0,-0.5523 -0.4477,-1 -1,-1h-11c-0.5523,0 -1,0.4477 -1,1v2.3358c0.3466,-0.0029 0.6697,0.0164 1,0.0287v-2.3644h11zM44.9376,36.7985l-5.8576,3.1415l4.28,3.14l1.7184,-6.1687c0.0232,-0.0832 -0.0647,-0.1535 -0.1407,-0.1127zM44,25c0,-0.5523 -0.4477,-1 -1,-1h-13c-0.5523,0 -1,0.4477 -1,1v6c0,0.5522 0.4477,1 1,1h13c0.5523,0 1,-0.4478 1,-1zM34,34v2.315c0.321,0.0126 0.6509,0.0211 1,0.0206v-2.3356c0,-0.5523 -0.4477,-1 -1,-1h-8.7513c0.3126,0.2321 0.6242,0.4656 0.9466,0.6895c0.153,0.1055 0.3055,0.2087 0.4583,0.3105zM21,22c0,0.5522 0.4477,1 1,1h13c0.5523,0 1,-0.4478 1,-1v-6c0,-0.5523 -0.4477,-1 -1,-1h-13c-0.5523,0 -1,0.4477 -1,1zM21,24h-7c-0.5523,0 -1,0.4477 -1,1v6.4239c0,0 0.0946,0.5701 0.7258,0.3395c0.0344,-0.0256 0.0709,-0.0487 0.1053,-0.0745c0.3055,-0.2286 0.6289,-0.4654 0.9909,-0.689h-0.822v-6h13v6h-4.7144c0.5529,0.2989 1.0807,0.6383 1.591,1h3.1234c0.5523,0 1,-0.4478 1,-1v-6c0,-0.5523 -0.4477,-1 -1,-1h-6zM19.0251,23.0251c0.5531,0.0011 1.002,-0.4469 1.002,-1v-6c0,-0.5515 -0.4465,-0.9989 -0.998,-1l-12.5292,-0.0251c-0.276,-0.0005 -0.5,0.223 -0.5,0.499v7c0,0.275 0.225,0.5005 0.5,0.501l12.5251,0.0251zM49.08,40.1552c-1.124,0.1196 -2.1875,0.2329 -3.2549,0.0034c-0.198,-0.0406 -0.3878,-0.1005 -0.5658,-0.1646l-1.1256,4.0528c-0.0439,0.1582 -0.1621,0.2847 -0.3174,0.3389c-0.0537,0.0181 -0.1094,0.0273 -0.1641,0.0273c-0.1055,0 -0.209,-0.0332 -0.2959,-0.0967l-2.2462,-1.6481l-1.3906,1.7757l0.3897,0.3051c0.2168,0.1699 0.2549,0.4844 0.085,0.7017l-1.7686,2.2598c-0.2949,0.376 -0.7344,0.5723 -1.1787,0.5723c-0.3223,0 -0.6465,-0.1035 -0.9189,-0.3164l-0.001,-0.0005c-0.3145,-0.2461 -0.5137,-0.6001 -0.5615,-0.9961c-0.0488,-0.3965 0.0605,-0.7881 0.3066,-1.1021l1.7686,-2.2593c0.1699,-0.2178 0.4834,-0.2563 0.7021,-0.0854l0.3895,0.3049l1.3714,-1.7512l-2.4582,-1.8037c-0.1387,-0.1016 -0.2148,-0.2671 -0.2031,-0.4385c0.0127,-0.1714 0.1113,-0.3247 0.2627,-0.4058l2.7902,-1.4944c-1.4789,-0.4495 -3.0987,-0.6526 -5.0236,-0.6042c-5.3359,0.1226 -7.7031,-1.2031 -10.0459,-2.8184c-0.4395,-0.3057 -0.8662,-0.6235 -1.29,-0.9399c-1.8936,-1.4131 -3.666,-2.7393 -6.2705,-2.5635c-1.835,0.1348 -2.71,0.7891 -3.6357,1.4814c-1.126,0.8423 -2.3076,1.7031 -4.9912,1.6504c-2.291,-0.0518 -3.1748,0.3896 -3.4385,0.5747v15.2852h52.0001v-7.7773c-0.3926,-0.3384 -1.5068,-1.2202 -2.9385,-1.665c-2.4785,-0.7744 -4.3398,-0.5776 -5.9814,-0.4023zM57.4999,31.9999c0.2761,0 0.5,-0.2239 0.5,-0.5v-7c0,-0.2762 -0.2239,-0.5 -0.5,-0.5h-11.5c-0.5523,0 -1,0.4477 -1,1v6c0,0.5522 0.4477,1 1,1z"></path></g></g></g></svg>