<svg version="1.1" xmlns="http://www.w3.org/2000/svg" xmlns:xlink="http://www.w3.org/1999/xlink" width="24px" height="24px" viewBox="0,0,256,256"><g fill="#7ed957" fill-rule="nonzero" stroke="none" stroke-width="1" stroke-linecap="butt" stroke-linejoin="miter" stroke-miterlimit="10" stroke-dasharray="" stroke-dashoffset="0" font-family="none" font-weight="none" font-size="none" text-anchor="none" style="mix-blend-mode: normal"><g transform="scale(10.66667,10.66667)"><g id="Layer_2"><path d="M2.71,22.71l2.4,-2.4c1.49096,0.87135 3.38243,0.62463 4.6,-0.6l2.7,-2.71l-1,-1l2.29,-2.29l-1.41,-1.41l-2.29,2.29l-0.59,-0.59l2.29,-2.29l-1.41,-1.41l-2.29,2.29l-1,-1l-2.71,2.7c-1.21472,1.22245 -1.46052,3.10687 -0.6,4.6l-2.4,2.4zM5.71,15.71l1.29,-1.3l2.59,2.59l-1.3,1.29c-0.71521,0.71521 -1.87479,0.71521 -2.59,0c-0.71521,-0.71521 -0.71521,-1.87479 0,-2.59z"></path><path d="M18.89,3.69c-1.49313,-0.86052 -3.37755,-0.61472 -4.6,0.6l-2.7,2.71l5.41,5.41l2.71,-2.71c1.21472,-1.22245 1.46052,-3.10687 0.6,-4.6l2.4,-2.4l-1.42,-1.41zM18.29,8.29l-1.29,1.3l-2.59,-2.59l1.29,-1.29c0.71521,-0.71521 1.87479,-0.71521 2.59,0c0.71521,0.71521 0.71521,1.87479 0,2.59z"></path></g></g></g></svg>