<svg version="1.1" xmlns="http://www.w3.org/2000/svg" xmlns:xlink="http://www.w3.org/1999/xlink" width="512px" height="512px" viewBox="0,0,256,256"><g fill="#7ed957" fill-rule="nonzero" stroke="none" stroke-width="1" stroke-linecap="butt" stroke-linejoin="miter" stroke-miterlimit="10" stroke-dasharray="" stroke-dashoffset="0" font-family="none" font-weight="none" font-size="none" text-anchor="none" style="mix-blend-mode: normal"><g transform="scale(0.5,0.5)"><g><path d="M80,186h-60c-11.046,0 -20,8.954 -20,20v250c0,11.046 8.954,20 20,20h60c11.046,0 20,-8.954 20,-20v-250c0,-11.046 -8.954,-20 -20,-20z"></path><path d="M337.137,186c-15.4,0 -25.247,-16.411 -18,-30l36.434,-68.313c12.486,-23.412 -4.479,-51.687 -31.012,-51.687v0c-9.322,0 -18.261,3.703 -24.853,10.294l-116.275,116.275c-15.002,15.003 -23.431,35.351 -23.431,56.568v176.863c0,44.183 35.817,80 80,80h165.644c27.304,0 51.165,-18.435 58.057,-44.855l46.577,-178.544c1.143,-4.383 1.722,-8.894 1.722,-13.423v0c0,-29.369 -23.809,-53.178 -53.178,-53.178z"></path></g></g></g></svg>