<svg version="1.1" xmlns="http://www.w3.org/2000/svg" xmlns:xlink="http://www.w3.org/1999/xlink" width="512px" height="512px" viewBox="0,0,256,256"><g fill="#7ed957" fill-rule="nonzero" stroke="none" stroke-width="1" stroke-linecap="butt" stroke-linejoin="miter" stroke-miterlimit="10" stroke-dasharray="" stroke-dashoffset="0" font-family="none" font-weight="none" font-size="none" text-anchor="none" style="mix-blend-mode: normal"><g transform="translate(0,-0.00196) scale(0.5,0.5)"><g><g><g><path d="M193.8,461.1c-49.5,0 -99,0 -148.6,0c-5.9,0 -13.1,1.1 -18.8,-0.6c-5.9,-1.8 -5,-9.2 -5,-13.9c0,-20 0,-40.1 0,-60.1c0,-62.5 0,-125.1 0,-187.6c0,-18.6 0,-37.2 0,-55.8c0,-5.7 0.8,-12.3 8.4,-12.3c6.9,0 13.7,0 20.6,0c30.7,0 61.3,0 92,0c12.9,0 25.8,0 38.7,0c5.4,0 15.6,-1.8 19.2,3.3c2.4,3.3 1.6,9 1.6,12.9c0,8.3 0,16.7 0,25c0,27.8 0,55.6 0,83.5c0,58.4 0,116.8 0,175.2c0,6.1 0,12.1 0,18.2c0.1,5.6 -0.6,11.9 -8.1,12.2c-9.6,0.4 -9.7,15.4 0,15c14.5,-0.6 23.2,-11.9 23.2,-25.7c0,-6.2 0,-12.5 0,-18.7c0,-25.4 0,-50.8 0,-76.2c0,-60.7 0,-121.5 0,-182.2c0,-8.5 0,-17.1 0,-25.6c0,-4.3 0.4,-9.1 -0.5,-13.4c-2.3,-10.7 -11.8,-18.5 -22.8,-18.5c-1.9,0 -3.9,0 -5.8,0c-11,0 -21.9,0 -32.9,0c-31.4,0 -62.7,0 -94.1,0c-9.5,0 -19,0 -28.5,0c-13.6,0 -25.9,8.6 -25.9,23.3c0,42.4 0,84.7 0,127.1c0,56.7 0,113.4 0,170.1c0,5.2 0,10.4 0,15.6c0,13.5 10.2,24.2 23.8,24.2c22.3,0 44.7,0 67,0c32.2,0 64.3,0 96.5,0c9.7,0 9.7,-15 0,-15z"></path></g></g><g><g><path d="M498,461.1c-42.6,0 -85.2,0 -127.8,0c-52,0 -104,0 -156,0c-1.6,0 -3.2,0 -4.8,0c2.5,2.5 5,5 7.5,7.5c0,-47.4 0,-94.7 0,-142.1c0,-29.2 0,-58.4 0,-87.6c-2.5,2.5 -5,5 -7.5,7.5c42.6,0 85.2,0 127.8,0c52,0 104,0 156,0c1.6,0 3.2,0 4.8,0c-2.5,-2.5 -5,-5 -7.5,-7.5c0,47.4 0,94.7 0,142.1c0,29.2 0,58.4 0,87.6c0,9.7 15,9.7 15,0c0,-47.4 0,-94.7 0,-142.1c0,-29.2 0,-58.4 0,-87.6c0,-4.1 -3.4,-7.5 -7.5,-7.5c-42.6,0 -85.2,0 -127.8,0c-52,0 -104,0 -156,0c-1.6,0 -3.2,0 -4.8,0c-4.1,0 -7.5,3.4 -7.5,7.5c0,47.4 0,94.7 0,142.1c0,29.2 0,58.4 0,87.6c0,4.1 3.4,7.5 7.5,7.5c42.6,0 85.2,0 127.8,0c52,0 104,0 156,0c1.6,0 3.2,0 4.8,0c9.7,0 9.7,-15 0,-15z"></path></g></g><g><g><path d="M498,147.2c-48.9,0 -97.8,0 -146.7,0c-20.4,0 -40.7,0 -61.1,0c2.5,2.5 5,5 7.5,7.5c0,-37.1 0,-74.2 0,-111.3c-2.5,2.5 -5,5 -7.5,7.5c48.9,0 97.8,0 146.7,0c20.4,0 40.7,0 61.1,0c-2.5,-2.5 -5,-5 -7.5,-7.5c0,37.1 0,74.2 0,111.3c0,9.7 15,9.7 15,0c0,-37.1 0,-74.2 0,-111.3c0,-4.1 -3.4,-7.5 -7.5,-7.5c-48.9,0 -97.8,0 -146.7,0c-20.4,0 -40.7,0 -61.1,0c-4.1,0 -7.5,3.4 -7.5,7.5c0,37.1 0,74.2 0,111.3c0,4.1 3.4,7.5 7.5,7.5c48.9,0 97.8,0 146.7,0c20.4,0 40.7,0 61.1,0c9.7,0 9.7,-15 0,-15z"></path></g></g><g><g><path d="M386.6,43.4c0,37.1 0,74.2 0,111.3c0,9.7 15,9.7 15,0c0,-37.1 0,-74.2 0,-111.3c0,-9.7 -15,-9.7 -15,0z"></path></g></g><g><g><path d="M414.3,82.9c0,10.8 0,21.6 0,32.4c0,9.7 15,9.7 15,0c0,-10.8 0,-21.6 0,-32.4c0,-9.7 -15,-9.7 -15,0z"></path></g></g><g><g><path d="M361.7,82.9c0,10.8 0,21.6 0,32.4c0,9.7 15,9.7 15,0c0,-10.8 0,-21.6 0,-32.4c0,-9.7 -15,-9.7 -15,0z"></path></g></g><g><g><path d="M498,346.2c-47.3,0 -94.5,0 -141.8,0c-0.8,0 -1.7,0 -2.5,0c2.5,2.5 5,5 7.5,7.5c0,-38.3 0,-76.6 0,-114.8c-2.5,2.5 -5,5 -7.5,7.5c47.3,0 94.5,0 141.8,0c0.8,0 1.7,0 2.5,0c-2.5,-2.5 -5,-5 -7.5,-7.5c0,38.3 0,76.6 0,114.8c0,9.7 15,9.7 15,0c0,-38.3 0,-76.6 0,-114.8c0,-4.1 -3.4,-7.5 -7.5,-7.5c-47.3,0 -94.5,0 -141.8,0c-0.8,0 -1.7,0 -2.5,0c-4.1,0 -7.5,3.4 -7.5,7.5c0,38.3 0,76.6 0,114.8c0,4.1 3.4,7.5 7.5,7.5c47.3,0 94.5,0 141.8,0c0.8,0 1.7,0 2.5,0c9.7,0 9.7,-15 0,-15z"></path></g></g><g><g><path d="M498,461.1c-47.3,0 -94.5,0 -141.8,0c-0.8,0 -1.7,0 -2.5,0c2.5,2.5 5,5 7.5,7.5c0,-38.3 0,-76.6 0,-114.8c-2.5,2.5 -5,5 -7.5,7.5c47.3,0 94.5,0 141.8,0c0.8,0 1.7,0 2.5,0c-2.5,-2.5 -5,-5 -7.5,-7.5c0,38.3 0,76.6 0,114.8c0,9.7 15,9.7 15,0c0,-38.3 0,-76.6 0,-114.8c0,-4.1 -3.4,-7.5 -7.5,-7.5c-47.3,0 -94.5,0 -141.8,0c-0.8,0 -1.7,0 -2.5,0c-4.1,0 -7.5,3.4 -7.5,7.5c0,38.3 0,76.6 0,114.8c0,4.1 3.4,7.5 7.5,7.5c47.3,0 94.5,0 141.8,0c0.8,0 1.7,0 2.5,0c9.7,0 9.7,-15 0,-15z"></path></g></g><g><g><path d="M315.9,337.5c0,10.8 0,21.6 0,32.4c0,9.7 15,9.7 15,0c0,-10.8 0,-21.6 0,-32.4c0,-9.6 -15,-9.6 -15,0z"></path></g></g><g><g><path d="M408.6,303.8c10.8,0 21.6,0 32.4,0c9.7,0 9.7,-15 0,-15c-10.8,0 -21.6,0 -32.4,0c-9.7,0 -9.7,15 0,15z"></path></g></g><g><g><path d="M409.7,418.7c10.8,0 21.6,0 32.4,0c9.7,0 9.7,-15 0,-15c-10.8,0 -21.6,0 -32.4,0c-9.7,0 -9.7,15 0,15z"></path></g></g><g><g><path d="M14,345c49.4,0 98.9,0 148.3,0c15.7,0 31.4,0 47.2,0c9.7,0 9.7,-15 0,-15c-49.4,0 -98.9,0 -148.3,0c-15.7,0 -31.4,0 -47.2,0c-9.7,0 -9.7,15 0,15z"></path></g></g><g><g><path d="M31.9,238.9c0,9.5 0,19 0,28.6c0,9.7 15,9.7 15,0c0,-9.5 0,-19 0,-28.6c0,-9.7 -15,-9.7 -15,0z"></path></g></g><g><g><path d="M31.9,394.9c0,9.5 0,19 0,28.6c0,9.7 15,9.7 15,0c0,-9.5 0,-19 0,-28.6c0,-9.7 -15,-9.7 -15,0z"></path></g></g></g></g></g></svg>