<svg version="1.1" xmlns="http://www.w3.org/2000/svg" xmlns:xlink="http://www.w3.org/1999/xlink" width="88px" height="88px" viewBox="0,0,256,256"><g fill="#7ed957" fill-rule="nonzero" stroke="none" stroke-width="1" stroke-linecap="butt" stroke-linejoin="miter" stroke-miterlimit="10" stroke-dasharray="" stroke-dashoffset="0" font-family="none" font-weight="none" font-size="none" text-anchor="none" style="mix-blend-mode: normal"><g transform="translate(0,0.00017) scale(2.90909,2.90909)"><g id="Paint_Roller"><rect x="7" y="1" width="62" height="22" rx="1" ry="1"></rect><path d="M1,7v10c0.00159,0.55162 0.44838,0.99841 1,1h3v-12h-3c-0.55162,0.00159 -0.99841,0.44838 -1,1z"></path><path d="M75,17v-10c-0.00159,-0.55162 -0.44838,-0.99841 -1,-1h-3v12h3c0.55162,-0.00159 0.99841,-0.44838 1,-1z"></path><circle cx="38" cy="76" r="3"></circle><path d="M45.3755,47.7949c-0.11171,-1.5716 -1.41714,-2.79075 -2.9927,-2.7949h-8.7656c-1.57556,0.00415 -2.88099,1.2233 -2.9927,2.7949l-2.0045,29.1582c-0.24074,3.50498 1.49265,6.8518 4.49426,8.67751c3.00161,1.82571 6.77067,1.82571 9.77228,0c3.00161,-1.82571 4.735,-5.17252 4.49426,-8.67751zM38,81c-2.76142,0 -5,-2.23858 -5,-5c0,-2.76142 2.23858,-5 5,-5c2.76142,0 5,2.23858 5,5c-0.00325,2.76008 -2.23992,4.99675 -5,5z"></path><path d="M82,11h-5v2h5c1.65485,0.00483 2.99517,1.34515 3,3v12c-0.00483,1.65485 -1.34515,2.99517 -3,3h-40c-2.76101,0.00099 -4.99901,2.23899 -5,5v7h2v-7c0.00483,-1.65485 1.34515,-2.99517 3,-3h40c2.76101,-0.00099 4.99901,-2.23899 5,-5v-12c-0.00099,-2.76101 -2.23899,-4.99901 -5,-5z"></path></g></g></g></svg>