<svg version="1.1" xmlns="http://www.w3.org/2000/svg" xmlns:xlink="http://www.w3.org/1999/xlink" width="64" height="64" viewBox="0,0,256,256"><g fill="#7ed957" fill-rule="nonzero" stroke="none" stroke-width="1" stroke-linecap="butt" stroke-linejoin="miter" stroke-miterlimit="10" stroke-dasharray="" stroke-dashoffset="0" font-family="none" font-weight="none" font-size="none" text-anchor="none" style="mix-blend-mode: normal"><g transform="translate(0.10062,0.04716) scale(4,4)"><path d="M58.24,44.82c-1.2053,-1.1964 -2.7096,-2.0475 -4.356,-2.4644c-1.6464,-0.4168 -3.3745,-0.3842 -5.004,0.0944l-27.33,-27.33c2.7,-9.37001 -8.85,-16.23001 -15.78995,-9.36001c-6.94,6.87001 0,18.52001 9.37995,15.81001l27.31,27.31c-1.88,5.81 2.94,12.32 9.08,12.12c8.36,0.09 12.66,-10.3 6.71,-16.18zM16.53,14.08l-2.45,2.45c-0.0926,0.0945 -0.203,0.1696 -0.3249,0.2211c-0.1219,0.0515 -0.2527,0.0783 -0.3851,0.0789c0.05,0.09 -3.54995,-0.94 -3.60995,-0.94c-0.16924,-0.0444 -0.32388,-0.1324 -0.44847,-0.2552c-0.12458,-0.1228 -0.21477,-0.2762 -0.26153,-0.4448l-0.9,-3.36c-0.05182,-0.1746 -0.05498,-0.36 -0.00916,-0.5362c0.04582,-0.1762 0.13888,-0.3366 0.26916,-0.4638l2.44995,-2.45001c0.1273,-0.13027 0.2876,-0.22334 0.4639,-0.26916c0.1762,-0.04582 0.3616,-0.04265 0.5361,0.00916l3.36,0.9c0.1686,0.04677 0.322,0.13695 0.4448,0.26154c0.1229,0.12459 0.2109,0.27922 0.2552,0.44846l0.9,3.35001c0.0482,0.1772 0.0466,0.3643 -0.0045,0.5407c-0.0512,0.1764 -0.1499,0.3353 -0.2855,0.4593zM56.29,53.32l-3,3c-0.1862,0.1847 -0.4376,0.2889 -0.7,0.29c-0.0863,0.0104 -0.1736,0.0104 -0.26,0l-4.03,-1.15c-0.1685,-0.0468 -0.3219,-0.137 -0.4448,-0.2615c-0.1228,-0.1246 -0.2108,-0.2793 -0.2552,-0.4485l-1.09,-4c-0.0518,-0.1746 -0.0549,-0.36 -0.0091,-0.5362c0.0458,-0.1762 0.1389,-0.3366 0.2691,-0.4638l3,-3c0.1273,-0.1303 0.2876,-0.2233 0.4639,-0.2692c0.1762,-0.0458 0.3616,-0.0426 0.5361,0.0092l4,1.09c0.1693,0.0444 0.3239,0.1324 0.4485,0.2552c0.1246,0.1228 0.2148,0.2762 0.2615,0.4448l1.09,4.06c0.0455,0.1734 0.0435,0.3559 -0.0057,0.5283c-0.0493,0.1725 -0.144,0.3285 -0.2743,0.4517z"></path><path d="M29.7501,39.69l-0.22,-0.33l-4.88,-4.88c-0.093,-0.0937 -0.2036,-0.1681 -0.3254,-0.2189c-0.1219,-0.0508 -0.2526,-0.0769 -0.3846,-0.0769c-0.132,0 -0.2627,0.0261 -0.3846,0.0769c-0.1218,0.0508 -0.2324,0.1252 -0.3254,0.2189l-7.89,7.89c-9.34,-2.81 -16.4,8.72 -9.47,15.76c6.93,7.04 18.57,-0.13 15.76,-9.46l7.9,-7.89c0.1321,-0.1447 0.2223,-0.3225 0.2611,-0.5145c0.0387,-0.192 0.0245,-0.3909 -0.0411,-0.5755zM17.6501,50.59l-1.1,4.11c-0.0452,0.1704 -0.1347,0.3259 -0.2594,0.4506c-0.1247,0.1247 -0.2802,0.2142 -0.4506,0.2594l-4.11,1.1c-0.1746,0.0518 -0.36,0.055 -0.5362,0.0092c-0.1762,-0.0459 -0.3366,-0.1389 -0.4638,-0.2692l-3,-3c-0.13028,-0.1272 -0.22334,-0.2876 -0.26916,-0.4638c-0.04582,-0.1762 -0.04265,-0.3616 0.00916,-0.5362l1.1,-4.11c0.04523,-0.1704 0.13474,-0.3259 0.25943,-0.4506c0.12469,-0.1247 0.28013,-0.2142 0.45057,-0.2594l4.11,-1.1c0.1746,-0.0518 0.36,-0.055 0.5362,-0.0092c0.1762,0.0459 0.3366,0.1389 0.4638,0.2692l3,3c0.1303,0.1272 0.2233,0.2876 0.2692,0.4638c0.0458,0.1762 0.0426,0.3616 -0.0092,0.5362z"></path><path d="M34.48,24.65l4.88,4.88c0.093,0.0938 0.2036,0.1682 0.3254,0.2189c0.1219,0.0508 0.2526,0.0769 0.3846,0.0769c0.132,0 0.2627,-0.0261 0.3846,-0.0769c0.1218,-0.0507 0.2324,-0.1251 0.3254,-0.2189l7.34,-7.36c6.88,2.44 14.2,-4.08 12.63,-11.17c-0.0506,-0.2418 -0.189,-0.4563 -0.3884,-0.6022c-0.1994,-0.1459 -0.4458,-0.2128 -0.6916,-0.1878c-0.2274,0.0282 -0.4404,0.126 -0.61,0.28l-4,4l-4.36,-1.17l-1.21,-4.31996l4,-4c0.0987,-0.10892 0.1737,-0.23717 0.2202,-0.37662c0.0464,-0.13944 0.0634,-0.28703 0.0498,-0.43338c-0.0067,-0.21816 -0.0847,-0.42811 -0.2219,-0.59784c-0.1372,-0.16972 -0.3262,-0.28989 -0.5381,-0.34216c-7.14,-1.54 -13.55,5.74999 -11.16,12.60996l-7.36,7.37c-0.0937,0.093 -0.1681,0.2036 -0.2189,0.3255c-0.0508,0.1218 -0.0769,0.2525 -0.0769,0.3845c0,0.132 0.0261,0.2628 0.0769,0.3846c0.0508,0.1219 0.1252,0.2325 0.2189,0.3254z"></path></g></g></svg>