<svg version="1.1" xmlns="http://www.w3.org/2000/svg" xmlns:xlink="http://www.w3.org/1999/xlink" width="64pt" height="64pt" viewBox="0,0,256,256"><g fill="#7ed957" fill-rule="nonzero" stroke="none" stroke-width="0.52917" stroke-linecap="round" stroke-linejoin="round" stroke-miterlimit="4" stroke-dasharray="" stroke-dashoffset="0" font-family="none" font-weight="none" font-size="none" text-anchor="none" style="mix-blend-mode: normal"><g transform="translate(0,-0.00005) scale(11.33858,11.33858)"><g transform="translate(0,-274.42223)" id="layer1"><path d="M19.68127,277.14438c-0.15358,0.0113 -0.30702,0.0565 -0.44817,0.13875l-10.34971,6.03082c0.60923,1.09754 1.40037,2.23854 1.85589,3.29486c0.30117,0.78236 0.12476,1.42766 -0.2091,1.86045c-0.63057,0.97702 -1.21248,2.0137 -1.85589,2.97242l0.74783,-0.0833c0.16137,-0.0185 0.28598,-0.15051 0.29509,-0.31269l0.03714,-0.68919l0.68724,0.0371c0.1843,0.0101 0.34194,-0.13096 0.35177,-0.31528l0.03453,-0.6892l0.6892,0.0364c0.18331,0.009 0.33963,-0.13138 0.34981,-0.31464l0.03714,-0.68723l0.68659,0.0345c0.18355,0.009 0.33997,-0.13178 0.34981,-0.31529l0.03714,-0.68659l0.68659,0.0364c0.1843,0.0113 0.34225,-0.13031 0.35242,-0.31464l0.03387,-0.68985l0.68724,0.0372c0.18429,0.0101 0.34194,-0.13097 0.35177,-0.31529l0.03714,-0.68919l0.68724,0.0371c0.1833,0.009 0.33932,-0.13203 0.34916,-0.31528l0.03714,-0.6866l0.68659,0.0339c0.18331,0.009 0.33963,-0.13137 0.34981,-0.31464l0.03714,-0.68723l0.68659,0.0371c0.18551,0.0101 0.344,-0.13226 0.35242,-0.31789l0.03714,-0.6866l0.68659,0.0364c0.18331,0.009 0.33963,-0.13137 0.34981,-0.31463l0.03648,-0.68985l0.68725,0.0371c0.18355,0.009 0.33997,-0.13177 0.34981,-0.31528l0.03648,-0.6892l0.68724,0.0372c0.18238,0.0101 0.3392,-0.12783 0.35177,-0.31007l0.07165,-1.00253c0.0044,-0.0662 -0.01097,-0.13218 -0.0443,-0.18956l-0.88658,-1.54842c0,-0.001 0,-0.001 0,-0.003c-0.18098,-0.31365 -0.50284,-0.50044 -0.84163,-0.52504c-0.05081,-0.004 -0.10189,-0.004 -0.15308,0zM19.64479,278.54102c0.1842,-0.00066 0.33411,0.14802 0.33483,0.33221c0.00073,0.18523 -0.14961,0.33557 -0.33483,0.33484c-0.18446,-0.00033 -0.33359,-0.15038 -0.33287,-0.33484c0.00073,-0.18343 0.14944,-0.33185 0.33287,-0.33221zM13.95271,281.9603c0.12507,-0.0113 0.21526,0.0543 0.30942,0.18761c0.081,0.16446 0.01408,0.36346 -0.14982,0.44558l-0.66705,0.33482c-0.16511,0.0828 -0.36603,0.0156 -0.44818,-0.14982c-0.081,-0.16447 -0.01408,-0.36346 0.14983,-0.44558l0.6677,-0.33483c0.0509,-0.0213 0.09641,-0.0339 0.1381,-0.0378zM12.38475,282.95827c0.07561,0.0166 0.14037,0.0702 0.19608,0.16742c0.0952,0.15776 0.04445,0.36281 -0.11335,0.45795l-1.66893,0.99926c-0.15733,0.0939 -0.36092,0.0432 -0.45599,-0.11332c-0.0952,-0.15776 -0.04443,-0.36282 0.11335,-0.45795l1.66698,-0.99927c0.0998,-0.0502 0.18626,-0.0707 0.26187,-0.0541zM8.33163,283.70024c-1.73567,0.83879 -3.45435,1.93375 -5.15075,2.91379c-0.32528,0.15152 -0.64763,0.12568 -1.02924,0.14526c-0.1917,0.0101 -0.40207,0.034 -0.61038,0.1381c-0.20831,0.10413 -0.39455,0.28999 -0.54458,0.59669c-0.11734,0.68342 0.16903,1.18651 0.56869,1.49827c0.39966,0.31176 0.89374,0.51106 1.3569,0.76346c0.46316,0.2524 0.88908,0.54503 1.17906,0.9921c0.28998,0.44709 0.4632,1.06317 0.36935,2.07673c0.08217,0.53313 0.29807,0.91148 0.59865,1.14844c0.30058,0.23697 0.66949,0.3257 1.01882,0.30551c0.69864,-0.0403 1.38239,-0.484 1.53669,-1.14583l0.56413,-0.90612c-0.07802,-0.0901 -0.18146,-0.20827 -0.23451,-0.41757c-0.06686,-0.26378 0.02665,-0.57555 0.27099,-0.88853l1.75817,-2.83041c0.25663,-0.3344 0.36794,-0.6274 0.13549,-1.23703c-0.59069,-1.1637 -1.12374,-2.15798 -1.78749,-3.15286zM8.30427,285.21088c0.18522,-0.00074 0.33555,0.1496 0.33483,0.33482c-0.00073,0.18421 -0.15063,0.33294 -0.33483,0.33222c-0.18318,-0.00069 -0.33151,-0.14903 -0.33222,-0.33222c-0.00073,-0.18419 0.14802,-0.3341 0.33222,-0.33482zM7.06593,286.2792c0.316,0.004 0.68629,0.0755 0.88137,0.41364c0.1392,0.24124 0.29087,0.625 0.39606,1.03185c0.0526,0.20343 0.0921,0.41082 0.10097,0.61038c0.00887,0.19956 -0.0017,0.39804 -0.12051,0.59083l-1.57317,2.55356c-0.13227,0.21553 -0.44691,0.21125 -0.57325,-0.008l-1.62528,-2.81869c-0.28959,-0.50181 -0.11541,-1.15307 0.38629,-1.44289l1.25072,-0.72177c0.25085,-0.14497 0.56081,-0.21288 0.87681,-0.2091zM9.15893,286.69025c0.18344,0.00069 0.33187,0.14942 0.33222,0.33286c0.00073,0.18421 -0.14802,0.33411 -0.33222,0.33483c-0.18522,0.00073 -0.33555,-0.1496 -0.33483,-0.33483c0.00037,-0.18445 0.15037,-0.33358 0.33483,-0.33286z" id="path1550"></path></g></g></g></svg>