<svg version="1.1" xmlns="http://www.w3.org/2000/svg" xmlns:xlink="http://www.w3.org/1999/xlink" width="100%" height="100%" viewBox="0,0,256,256"><g fill="#7ed957" fill-rule="evenodd" stroke="none" stroke-width="1" stroke-linecap="butt" stroke-linejoin="round" stroke-miterlimit="2" stroke-dasharray="" stroke-dashoffset="0" font-family="none" font-weight="none" font-size="none" text-anchor="none" style="mix-blend-mode: normal"><g transform="scale(10.66667,10.66667)"><g id="Icon"><g><path d="M12,1.25c-5.933,0 -10.75,4.817 -10.75,10.75c0,5.933 4.817,10.75 10.75,10.75c5.933,0 10.75,-4.817 10.75,-10.75c0,-5.933 -4.817,-10.75 -10.75,-10.75zM12,10c-0.398,0 -0.779,0.158 -1.061,0.439c-0.281,0.282 -0.439,0.663 -0.439,1.061c0,1.888 0,4.612 0,6.5c0,0.398 0.158,0.779 0.439,1.061c0.282,0.281 0.663,0.439 1.061,0.439c0.398,0 0.779,-0.158 1.061,-0.439c0.281,-0.282 0.439,-0.663 0.439,-1.061c0,-1.888 0,-4.612 0,-6.5c0,-0.398 -0.158,-0.779 -0.439,-1.061c-0.282,-0.281 -0.663,-0.439 -1.061,-0.439zM12,4.25c0.966,0 1.75,0.784 1.75,1.75c0,0.966 -0.784,1.75 -1.75,1.75c-0.966,0 -1.75,-0.784 -1.75,-1.75c0,-0.966 0.784,-1.75 1.75,-1.75z"></path></g></g></g></g></svg>