<svg version="1.1" xmlns="http://www.w3.org/2000/svg" xmlns:xlink="http://www.w3.org/1999/xlink" width="512px" height="512px" viewBox="0,0,256,256"><g fill="#7ed957" fill-rule="nonzero" stroke="none" stroke-width="1" stroke-linecap="butt" stroke-linejoin="miter" stroke-miterlimit="10" stroke-dasharray="" stroke-dashoffset="0" font-family="none" font-weight="none" font-size="none" text-anchor="none" style="mix-blend-mode: normal"><g transform="scale(0.5,0.5)"><path d="M352,256h-38.61c-15.71,-13.44 -35.46,-23.07 -57.39,-28v-47.56l-32,-3.38l-32,3.38v47.56c-21.93,5 -41.68,14.6 -57.39,28h-118.61c-8.83656,0 -16,7.16344 -16,16v96c0,8.83656 7.16344,16 16,16h92.79c20.59,37.73 64.21,64 115.21,64c51,0 94.62,-26.27 115.21,-64h12.79c17.67311,0 32,14.32689 32,32c0,17.67311 14.32689,32 32,32h64c17.67311,0 32,-14.32689 32,-32c0,-88.36556 -71.63444,-160 -160,-160zM81.59,159.91l142.41,-15l142.41,15c9.42,1 17.59,-6.81 17.59,-16.8v-30.22c0,-10 -8.17,-17.8 -17.59,-16.81l-110.41,11.66v-27.74c0,-8.83656 -7.16344,-16 -16,-16h-32c-8.83656,0 -16,7.16344 -16,16v27.74l-110.41,-11.66c-9.42,-0.99 -17.59,6.82 -17.59,16.81v30.22c0,9.99 8.17,17.8 17.59,16.8z"></path></g></g></svg>