<svg version="1.1" xmlns="http://www.w3.org/2000/svg" xmlns:xlink="http://www.w3.org/1999/xlink" width="48" height="48" viewBox="0,0,256,256"><g fill="#7ed957" fill-rule="evenodd" stroke="none" stroke-width="1" stroke-linecap="butt" stroke-linejoin="miter" stroke-miterlimit="10" stroke-dasharray="" stroke-dashoffset="0" font-family="none" font-weight="none" font-size="none" text-anchor="none" style="mix-blend-mode: normal"><g transform="scale(5.33333,5.33333)"><path d="M24,48c-13.2548,0 -24,-10.7452 -24,-24c0,-13.2548 10.7452,-24 24,-24c13.2548,0 24,10.7452 24,24c0,13.2548 -10.7452,24 -24,24zM24.7911,37.3525c7.8684,-0.0032 14.2679,-6.4042 14.271,-14.271c0.0016,-3.8132 -1.4815,-7.3987 -4.1759,-10.0961c-2.6944,-2.6975 -6.2776,-4.18375 -10.0953,-4.1854c-7.8661,0 -14.2681,6.4017 -14.2713,14.2702c-0.001,2.5153 0.6561,4.9703 1.905,7.1346l-2.0246,7.3952l7.5653,-1.9845c2.0845,1.1369 4.4314,1.7362 6.8199,1.737z"></path><path d="M18.3159,33.0319l-4.4894,1.1777l1.1983,-4.3772l-0.282,-0.4488c-1.1874,-1.8885 -1.8145,-4.0712 -1.8136,-6.3125c0.0026,-6.54 5.3237,-11.8607 11.8666,-11.8607c3.1682,0.0011 6.1464,1.2365 8.3859,3.4786c2.2395,2.2421 3.4721,5.2222 3.4709,8.3917c-0.0027,6.5405 -5.3237,11.8617 -11.8615,11.8617h-0.0048c-2.1285,-0.0009 -4.2161,-0.5727 -6.0373,-1.6534zM31.9808,26.4751c-0.0891,-0.1487 -0.3268,-0.2379 -0.6834,-0.4165c-0.3566,-0.1785 -2.1097,-1.041 -2.4366,-1.1601c-0.3268,-0.119 -0.5647,-0.1784 -0.8023,0.1784c-0.2377,0.357 -0.9211,1.1603 -1.1291,1.3982c-0.208,0.238 -0.4161,0.2678 -0.7725,0.0893c-0.3566,-0.1785 -1.5056,-0.555 -2.8676,-1.7699c-1.0601,-0.9456 -1.7758,-2.1132 -1.9838,-2.4702c-0.208,-0.357 -0.0221,-0.55 0.1564,-0.7278c0.1604,-0.1598 0.3566,-0.4166 0.5349,-0.6247c0.1783,-0.2082 0.2377,-0.357 0.3565,-0.5948c0.1189,-0.2381 0.0595,-0.4463 -0.0297,-0.6248c-0.0891,-0.1785 -0.8023,-1.9337 -1.0994,-2.6477c-0.2895,-0.6953 -0.5834,-0.6011 -0.8023,-0.6121c-0.2078,-0.0104 -0.4457,-0.0126 -0.6834,-0.0126c-0.2377,0 -0.6241,0.0892 -0.9509,0.4462c-0.3269,0.357 -1.2481,1.2197 -1.2481,2.9748c0,1.7552 1.2778,3.4508 1.4561,3.6888c0.1783,0.238 2.5144,3.8397 6.0915,5.3843c0.8508,0.3674 1.5149,0.5868 2.0329,0.7511c0.8542,0.2715 1.6316,0.2332 2.2459,0.1413c0.6852,-0.1023 2.1097,-0.8625 2.407,-1.6954c0.297,-0.8331 0.297,-1.5471 0.2079,-1.6958z"></path></g></g></svg>